<svg width="288" height="217" viewBox="0 0 288 217" fill="none" xmlns="http://www.w3.org/2000/svg">
<path fill-rule="evenodd" clip-rule="evenodd" d="M179.153 189.611C200.935 196.404 223.651 201.748 242.48 215.238C243.604 216.037 245.163 215.786 245.972 214.665C246.771 213.541 246.52 211.982 245.399 211.173C226.129 197.37 202.931 191.785 180.642 184.836C179.326 184.419 177.918 185.161 177.51 186.479C177.093 187.795 177.837 189.194 179.153 189.611Z" fill="#303073"/>
<path fill-rule="evenodd" clip-rule="evenodd" d="M186.277 157.205C194.911 152.867 203.718 150.285 213.405 150.526C214.788 150.561 215.932 149.468 215.972 148.09C216.002 146.709 214.906 145.561 213.532 145.528C202.999 145.266 193.423 148.024 184.038 152.737C182.801 153.355 182.299 154.858 182.924 156.093C183.539 157.324 185.05 157.825 186.277 157.205Z" fill="#303073"/>
<path fill-rule="evenodd" clip-rule="evenodd" d="M186.872 83.0956C193.076 73.2456 201.65 66.6028 212.845 63.2349C214.165 62.8371 214.917 61.442 214.515 60.1197C214.122 58.8001 212.724 58.0494 211.404 58.4472C199.013 62.1777 189.511 69.5244 182.641 80.4303C181.903 81.5963 182.261 83.1443 183.425 83.878C184.597 84.6154 186.143 84.2644 186.872 83.0956Z" fill="#303073"/>
<path fill-rule="evenodd" clip-rule="evenodd" d="M83.0069 37.6583C80.5145 39.3207 78.1658 41.2083 76.0234 43.3201C75.0686 44.26 73.2727 46.3242 72.516 48.318C71.7019 50.4401 71.9177 52.4881 73.5453 53.9992C75.7078 56.0042 77.7653 56.4473 79.5447 56.1162C81.2575 55.7994 82.8488 54.67 84.15 52.918C86.6354 49.5687 88.0619 43.7727 88.2564 40.2881C90.8334 38.8027 93.5481 37.5635 96.3576 36.5751C117.284 29.214 141.514 41.0525 155.893 65.1018C160.924 73.5213 160.359 88.0238 157.903 103.143C154.08 126.686 145.286 151.688 142.946 159.081C142.372 160.907 142.233 162.049 142.267 162.295C142.412 163.497 143.131 164.004 143.658 164.269C144.425 164.644 145.113 164.674 145.709 164.553C146.516 164.384 147.279 163.899 147.835 162.973C148.137 162.46 148.396 161.7 148.611 160.873C148.755 160.297 148.817 159.641 149.05 159.265C150.547 156.862 152.181 154.564 153.801 152.243C159.224 144.433 165.357 137.415 171.911 130.526C192.732 108.639 213.528 85.1685 241.214 71.8697C242.456 71.2728 242.987 69.7791 242.385 68.5341C241.794 67.2919 240.3 66.7676 239.049 67.3627C210.809 80.9227 189.524 104.76 168.288 127.08C162.715 132.94 157.436 138.894 152.625 145.325C156.55 132.639 161.491 114.939 163.62 98.6364C165.514 84.1382 165.072 70.7209 160.182 62.5362C144.432 36.1907 117.615 23.7926 94.6989 31.8593C92.2473 32.7232 89.8509 33.7589 87.5505 34.9677C82.7216 14.1147 63.4362 0.801519 42.111 4.02499C40.7421 4.22992 39.8057 5.50583 40.0091 6.86912C40.2222 8.23515 41.4931 9.1743 42.862 8.96936C62.0784 6.06506 79.3798 18.4964 83.0069 37.6583ZM82.6794 44.0844C81.5864 44.962 80.5395 45.8964 79.5297 46.8831C78.9933 47.4142 78.0304 48.4548 77.4308 49.571C77.2935 49.8334 77.1592 50.2672 77.1016 50.4691C77.6717 50.9855 78.1458 51.2915 78.6296 51.1998C79.2331 51.0893 79.6782 50.5509 80.1342 49.9375C81.2807 48.3992 82.1453 46.173 82.6794 44.0844Z" fill="#303073"/>
</svg>
